<svg width="1em" height="1em" viewBox="0 0 180 180" fill="none" xmlns="http://www.w3.org/2000/svg">
<path d="M103.097 4.98061C122.253 5.48387 134.192 18.6622 133.833 38.673C137.071 38.9261 140.411 38.8101 143.574 39.5019C155.253 42.0556 163.283 49.1255 166.769 60.5103C170.208 71.7402 167.614 82.0226 159.313 90.4136C139.866 110.07 120.245 129.554 100.71 149.124C99.4505 150.386 98.327 151.783 96.5258 153.808C101.003 158.061 105.276 161.991 109.396 166.074C112.737 169.386 113.11 173.184 110.6 175.73C108.006 178.361 104.415 177.984 100.975 174.619C97.5221 171.242 94.1077 167.824 90.728 164.372C83.5729 157.066 83.5216 149.355 90.7533 142.093C110.382 122.382 130.096 102.755 149.736 83.0542C156.275 76.4949 157.854 69.0361 154.457 61.7186C148.962 49.8809 134.276 47.2598 124.96 56.5359C108.907 72.5203 92.9154 88.5667 76.8962 104.585C75.9553 105.526 75.0686 106.539 74.0345 107.366C71.2279 109.609 68.1794 110.038 65.4884 107.424C62.8115 104.823 63.071 101.756 65.2716 98.8947C66.1794 97.7142 67.3157 96.7058 68.375 95.6459C83.9184 80.0937 99.4736 64.5533 115.01 48.9944C123.629 40.3637 124.187 29.698 116.455 22.1095C108.858 14.6544 98.028 15.3631 89.4897 23.8957C68.1632 45.2078 46.8484 66.5314 25.5117 87.8332C22.7878 90.5526 18 92.5 15 89.5C12 86.5 14.3569 82.0389 16.5095 79.8847C38.1735 58.2034 59.8806 36.5652 81.503 14.8425C87.39 8.92823 94.2348 5.34774 103.097 4.98061Z" fill="currentColor"/>
<path d="M102.598 95.5983C112.273 85.9247 123.573 74.9208 133 65.5C135.644 62.8572 139.308 62.7686 141.654 64.6343C144 66.5 144.648 69.7334 142.466 72.505C140.827 74.587 138.822 76.3863 136.939 78.2702C121.98 93.2322 107.162 108.339 92.0065 123.098C74.9472 139.712 47.6114 132.344 41.6864 109.592C38.9343 99.0244 41.27 89.3171 48.9994 81.4605C65.4718 64.7169 82.1687 48.1943 98.7474 31.5552C101.627 28.6651 104.695 27.8087 107.966 30.6611C110.879 33.2013 110.57 36.7112 107.073 40.2251C91.0931 56.2853 74.943 72.1789 59.1367 88.4078C56.3836 91.2345 54.0632 95.1644 53.1603 98.9686C51.3133 106.75 55.2842 114.23 62.0301 117.912C68.9444 121.687 77.1966 120.656 83.2241 114.889C89.7224 108.671 95.9837 102.206 102.598 95.5983Z" fill="currentColor"/>
</svg>
