<?xml version="1.0" standalone="no"?><!DOCTYPE svg PUBLIC "-//W3C//DTD SVG 1.1//EN" "http://www.w3.org/Graphics/SVG/1.1/DTD/svg11.dtd"><svg t="1740554438373" class="icon" viewBox="0 0 1024 1024" version="1.1" xmlns="http://www.w3.org/2000/svg" p-id="6426" xmlns:xlink="http://www.w3.org/1999/xlink" width="200" height="200"><path d="M885.727285 134.724401 137.500119 134.724401c-41.463344 0-75.17412 33.162284-75.17412 74.002434l0 451.134771c0 40.804335 33.710776 73.92978 75.17412 73.92978l748.227166 0c41.60763 0 75.172073-33.125445 75.172073-73.92978l0-451.134771C960.899358 167.885662 927.334915 134.724401 885.727285 134.724401L885.727285 134.724401 885.727285 134.724401zM867.738585 187.703009 569.345568 447.849958c-26.030863 22.833031-45.301765 34.168194-57.732889 34.168194s-31.699979-11.335163-57.769728-34.168194L155.488819 187.703009 867.738585 187.703009 867.738585 187.703009 867.738585 187.703009zM118.231263 643.334187 118.231263 235.765655l233.051847 200.969151L118.231263 643.334187 118.231263 643.334187 118.231263 643.334187zM157.425937 680.774915l233.893005-204.224288 38.317701 33.07121c22.267143 19.140942 49.725518 28.957519 81.975013 28.957519 32.431643 0 59.671031-9.816576 82.048691-28.957519l38.317701-33.07121 233.893005 204.224288L157.425937 680.774915 157.425937 680.774915 157.425937 680.774915zM904.995117 643.334187 671.978063 436.734806l233.017054-200.969151L904.995117 643.334187 904.995117 643.334187 904.995117 643.334187zM904.995117 643.334187" fill="#8a8a8a" p-id="6427"></path></svg>